HIERARCHY
ROOT WRIST
{
	OFFSET 0.000000 0.000000 0.000000
	CHANNELS 6 Xposition Yposition Zposition Yrotation Xrotation Zrotation
	JOINT THUMB_CMC_FE
	{
		OFFSET 0.225143 0.117753 -0.062308
		CHANNELS 3 Yrotation Xrotation Zrotation
		JOINT THUMB_CMC_AA
		{
			OFFSET 0.212856 -0.150507 0.098851
			CHANNELS 3 Yrotation Xrotation Zrotation
			JOINT THUMB_MCP_FE
			{
				OFFSET -0.322503 -0.167445 -0.031436
				CHANNELS 3 Yrotation Xrotation Zrotation
				JOINT THUMB_IP_FE
				{
					OFFSET 0.295233 -0.236404 0.025845
					CHANNELS 3 Yrotation Xrotation Zrotation
					End Site
					{
						OFFSET 0.000000 0.000000 0.000000
					}
				}
			}
		}
	}
	JOINT INDEX_MCP
	{
		OFFSET 1.076913 0.264198 -0.014768
		CHANNELS 3 Yrotation Xrotation Zrotation
		JOINT INDEX_PIP_FE
		{
			OFFSET 0.425053 0.013289 0.013619
			CHANNELS 3 Yrotation Xrotation Zrotation
			JOINT INDEX_DIP_FE
			{
				OFFSET 0.271505 -0.024898 0.000550
				CHANNELS 3 Yrotation Xrotation Zrotation
				End Site
				{
					OFFSET 0.000000 0.000000 0.000000
				}
			}
		}
	}
	JOINT MIDDLE_MCP
	{
		OFFSET 1.072991 0.019362 0.038780
		CHANNELS 3 Yrotation Xrotation Zrotation
		JOINT MIDDLE_PIP_FE
		{
			OFFSET 0.480704 0.002618 0.028696
			CHANNELS 3 Yrotation Xrotation Zrotation
			JOINT MIDDLE_DIP_FE
			{
				OFFSET 0.307486 -0.031129 -0.000643
				CHANNELS 3 Yrotation Xrotation Zrotation
				End Site
				{
					OFFSET 0.000000 0.000000 0.000000
				}
			}
		}
	}
	JOINT RING_MCP
	{
		OFFSET 0.994992 -0.195930 -0.005938
		CHANNELS 3 Yrotation Xrotation Zrotation
		JOINT RING_PIP_FE
		{
			OFFSET 0.436995 0.003792 0.019994
			CHANNELS 3 Yrotation Xrotation Zrotation
			JOINT RING_DIP_FE
			{
				OFFSET 0.295558 -0.038341 -0.006642
				CHANNELS 3 Yrotation Xrotation Zrotation
				End Site
				{
					OFFSET 0.000000 0.000000 0.000000
				}
			}
		}
	}
	JOINT PINKY_MCP
	{
		OFFSET 0.873858 -0.393246 -0.086282
		CHANNELS 3 Yrotation Xrotation Zrotation
		JOINT PINKY_PIP_FE
		{
			OFFSET 0.343972 -0.016492 0.013445
			CHANNELS 3 Yrotation Xrotation Zrotation
			JOINT PINKY_DIP_FE
			{
				OFFSET 0.224713 -0.036309 -0.010265
				CHANNELS 3 Yrotation Xrotation Zrotation
				End Site
				{
					OFFSET 0.000000 0.000000 0.000000
				}
			}
		}
	}
}
MOTION
Frames: 12
Frame Time: 0.008333334
2.426911 5.044543 4.043110 53.392810 63.874640 -69.282900 61.461190 4.834456 70.468060 119.352900 -30.976900 17.447210 -112.864000 -65.843200 -39.674470 4.562080 -8.459869 17.266080 -170.684600 3.370347 172.193500 -41.977870 -86.125610 3.493663 -2.052612 1.704991 -29.127500 -171.400500 -1.603210 -168.176000 -39.240050 -88.411440 -33.734650 -6.002533 4.395451 -2.953430 -149.480300 -11.872440 -171.134400 -31.479340 -85.617740 20.041560 0.199314 0.562929 -38.546720 -122.496100 -22.328130 175.902800 -48.977570 -83.530610 57.903180 5.539795 0.809181 -24.980990 
2.426719 5.044162 4.042449 52.080350 64.157330 -70.315640 61.461190 4.834449 69.653440 119.352900 -30.976870 17.379960 -112.863900 -65.843200 -38.971190 4.562087 -8.459869 17.470120 -170.628200 3.369570 173.073200 -41.977970 -86.125610 3.423980 -2.052612 1.704993 -28.133760 -171.969900 -1.548737 -167.653500 -39.239840 -88.411320 -34.290100 -6.002533 4.395440 -2.557526 -150.096300 -11.774290 -170.371100 -31.479430 -85.617830 18.784300 0.199320 0.562923 -38.425900 -122.941500 -22.334140 175.736000 -48.977290 -83.530610 58.143760 5.539793 0.809175 -25.912350 
2.426561 5.044364 4.042208 51.065000 64.382190 -71.034730 61.461180 4.834460 68.957180 119.352900 -30.976930 17.259510 -112.864000 -65.843200 -38.718440 4.562105 -8.459839 17.333250 -170.714100 3.370747 174.128300 -41.977840 -86.125670 3.494379 -2.052643 1.704994 -27.413540 -172.883500 -1.461029 -167.108000 -39.240480 -88.411440 -35.042850 -6.002502 4.395446 -2.757782 -150.900100 -11.644130 -169.872200 -31.479490 -85.617740 17.957040 0.199308 0.562922 -38.544070 -124.036700 -22.343840 175.656000 -48.977420 -83.530640 57.151430 5.539808 0.809169 -26.089600 
2.426485 5.045216 4.041824 50.575200 64.413540 -71.397980 61.461200 4.834461 68.638340 119.352900 -30.976900 17.343900 -112.863900 -65.843230 -38.752750 4.562103 -8.459839 16.732440 -170.739700 3.371084 174.962800 -41.978150 -86.125550 3.504501 -2.052612 1.704983 -27.124630 -173.516400 -1.400055 -167.097400 -39.240110 -88.411440 -35.392670 -6.002533 4.395451 -2.583588 -151.463600 -11.551480 -169.685600 -31.479400 -85.617680 17.124770 0.199312 0.562925 -39.440920 -123.996100 -22.343600 173.451700 -48.977450 -83.530580 58.606590 5.539793 0.809189 -27.542080 
2.426172 5.046184 4.041110 49.521890 64.521660 -72.181580 61.461190 4.834453 68.003330 119.352900 -30.976900 17.433130 -112.864000 -65.843200 -38.576420 4.562082 -8.459869 16.403520 -170.357300 3.365858 176.488900 -41.977720 -86.125550 4.390414 -2.052612 1.704997 -27.330810 -174.340800 -1.320343 -166.777500 -39.239560 -88.411440 -35.687960 -6.002533 4.395449 -3.085205 -152.247000 -11.420780 -169.277200 -31.479190 -85.617740 16.579920 0.199316 0.562926 -39.902530 -125.160600 -22.346130 173.353400 -48.977360 -83.530610 58.284560 5.539802 0.809185 -29.801390 
2.425505 5.046494 4.040488 48.496360 64.597950 -72.829990 61.461200 4.834449 67.243360 119.352900 -30.976900 17.488790 -112.864000 -65.843230 -38.447970 4.562087 -8.459839 16.053040 -169.694200 3.356418 178.548100 -41.977720 -86.125670 5.301205 -2.052612 1.704992 -27.773220 -175.433300 -1.214294 -166.403300 -39.240020 -88.411190 -36.437500 -6.002502 4.395435 -3.654297 -153.119000 -11.272710 -168.679900 -31.479250 -85.617800 15.265160 0.199310 0.562922 -39.906740 -126.356800 -22.340030 173.501000 -48.977360 -83.530610 57.085650 5.539794 0.809181 -30.402100 
2.425955 5.045927 4.039363 47.779850 64.629690 -73.362210 61.461190 4.834455 66.768840 119.352900 -30.976900 17.600230 -112.863900 -65.843200 -38.424350 4.562093 -8.459869 15.975790 -168.636800 3.340438 -179.644100 -41.977780 -86.125550 6.524598 -2.052643 1.705000 -28.099980 -176.457200 -1.114532 -166.264700 -39.239900 -88.411190 -37.172790 -6.002533 4.395443 -4.315704 -153.271300 -11.246580 -168.638500 -31.479130 -85.617680 14.569370 0.199297 0.562921 -40.299260 -126.658600 -22.337100 173.009900 -48.977330 -83.530640 55.972350 5.539810 0.809179 -30.460170 
2.425998 5.046923 4.038446 46.688390 64.594470 -74.336240 61.461190 4.834434 66.489170 119.352900 -30.976900 17.878920 -112.863900 -65.843200 -38.403020 4.562102 -8.459839 15.417490 -167.145200 3.315979 -177.814300 -41.978030 -86.125610 7.495300 -2.052643 1.705004 -28.707520 -177.362800 -1.025940 -166.489600 -39.240300 -88.411440 -37.854640 -6.002533 4.395449 -5.340302 -153.227600 -11.254090 -169.188400 -31.479520 -85.617740 13.141690 0.199319 0.562929 -40.048740 -126.782600 -22.335720 171.624200 -48.977330 -83.530670 54.144600 5.539794 0.809176 -29.904480 
2.427303 5.045287 4.037105 45.724540 64.803570 -75.103030 61.461190 4.834444 66.035340 119.352900 -30.976900 17.812720 -112.864000 -65.843230 -38.588810 4.562089 -8.459839 15.545070 -165.528500 3.286925 -175.356700 -41.977870 -86.125610 9.928223 -2.052643 1.704993 -29.997800 -178.669300 -0.897736 -166.577900 -39.240420 -88.411440 -39.016270 -6.002502 4.395435 -6.184418 -153.560200 -11.196750 -169.373700 -31.479580 -85.617740 10.749850 0.199317 0.562933 -39.577550 -126.383400 -22.339780 170.388700 -48.977540 -83.530610 55.690810 5.539793 0.809186 -31.644100 
2.428010 5.043427 4.036241 44.283820 65.023800 -76.282350 61.461190 4.834458 65.355470 119.352900 -30.976900 17.783580 -112.864000 -65.843200 -38.552280 4.562112 -8.459839 15.417650 -163.668400 3.250272 -173.065900 -41.977840 -86.125670 12.336770 -2.052643 1.704998 -31.561340 -179.451300 -0.820740 -166.731800 -39.240020 -88.411320 -39.299990 -6.002533 4.395455 -8.165619 -153.441200 -11.217320 -169.826700 -31.479520 -85.617740 9.477495 0.199306 0.562945 -38.657990 -126.925500 -22.334050 170.541700 -48.977630 -83.530640 54.455320 5.539804 0.809182 -32.905580 
2.430020 5.041109 4.035675 43.372280 65.281720 -77.079560 61.461190 4.834448 64.965820 119.352900 -30.976900 17.420700 -112.863900 -65.843230 -38.686740 4.562088 -8.459839 15.267650 -162.355700 3.222332 -171.496900 -41.977910 -86.125670 13.716150 -2.052612 1.705005 -32.838680 179.732800 -0.740265 -167.323400 -39.239960 -88.411440 -39.790950 -6.002533 4.395436 -9.376648 -153.767500 -11.160830 -170.402900 -31.479280 -85.617800 7.299876 0.199310 0.562916 -37.487430 -127.219400 -22.330170 169.009500 -48.977330 -83.530580 54.282560 5.539789 0.809174 -33.780180 
2.430396 5.039448 4.035768 42.917530 65.347050 -77.374730 61.461190 4.834458 64.740140 119.352900 -30.976900 17.064800 -112.863900 -65.843200 -39.050320 4.562097 -8.459869 15.146040 -160.705200 3.184830 -170.484700 -41.978150 -86.125610 15.103220 -2.052612 1.705014 -33.615480 179.500600 -0.717316 -167.763800 -39.239930 -88.411190 -40.260310 -6.002533 4.395450 -10.392610 -154.231200 -11.079930 -170.622400 -31.479430 -85.617800 4.972276 0.199304 0.562934 -36.233430 -126.747400 -22.336120 167.587600 -48.977450 -83.530610 55.660440 5.539794 0.809180 -35.382260 
